<svg width="32" height="33" viewBox="0 0 32 33" fill="none" xmlns="http://www.w3.org/2000/svg">
<path opacity="0.2" fill-rule="evenodd" clip-rule="evenodd" d="M16 32.8252C24.8366 32.8252 32 25.6618 32 16.8252C32 7.98864 24.8366 0.825195 16 0.825195C7.16344 0.825195 0 7.98864 0 16.8252C0 25.6618 7.16344 32.8252 16 32.8252Z" fill="#0082D9"/>
<g clip-path="url(#clip0_4230_710)">
<path d="M10 16.8252C10 13.9968 10 12.5826 10.8787 11.7039C11.7574 10.8252 13.1716 10.8252 16 10.8252C18.8284 10.8252 20.2426 10.8252 21.1213 11.7039C22 12.5826 22 13.9968 22 16.8252C22 19.6536 22 21.0678 21.1213 21.9465C20.2426 22.8252 18.8284 22.8252 16 22.8252C13.1716 22.8252 11.7574 22.8252 10.8787 21.9465C10 21.0678 10 19.6536 10 16.8252Z" stroke="#0082D9" stroke-width="1.5" stroke-linejoin="round"/>
<path d="M12.7992 20.026C13.3483 20.5752 14.2322 20.5752 16 20.5752C16.5924 20.5752 17.0855 20.5752 17.5 20.5545L19.7293 18.3252C19.75 17.9107 19.75 17.4176 19.75 16.8252C19.75 15.0574 19.75 14.1735 19.2008 13.6244C18.6517 13.0752 17.7678 13.0752 16 13.0752C14.2322 13.0752 13.3483 13.0752 12.7992 13.6244C12.25 14.1735 12.25 15.0574 12.25 16.8252C12.25 18.593 12.25 19.4768 12.7992 20.026Z" stroke="#0082D9" stroke-width="1.5" stroke-linejoin="round"/>
<path d="M13 9.3252V10.8252M19 9.3252V10.8252M16 9.3252V10.8252M13 22.8252V24.3252M16 22.8252V24.3252M19 22.8252V24.3252M23.5 19.8252H22M10 13.8252H8.5M10 19.8252H8.5M10 16.8252H8.5M23.5 13.8252H22M23.5 16.8252H22" stroke="#0082D9" stroke-width="1.5" stroke-linecap="round" stroke-linejoin="round"/>
</g>
<defs>
<clipPath id="clip0_4230_710">
<rect width="18" height="18" fill="white" transform="translate(7 7.8252)"/>
</clipPath>
</defs>
</svg>
