<svg width="32" height="32" viewBox="0 0 32 32" fill="none" xmlns="http://www.w3.org/2000/svg">
<path opacity="0.2" fill-rule="evenodd" clip-rule="evenodd" d="M16 32C24.8366 32 32 24.8366 32 16C32 7.16344 24.8366 0 16 0C7.16344 0 0 7.16344 0 16C0 24.8366 7.16344 32 16 32Z" fill="white"/>
<g clip-path="url(#clip0_4230_1230)">
<ellipse cx="13" cy="10" rx="4.5" ry="1.5" stroke="white" stroke-width="1.5"/>
<path d="M18.625 13.75C15.9326 13.75 13.75 15.9326 13.75 18.625C13.75 21.3174 15.9326 23.5 18.625 23.5C21.3174 23.5 23.5 21.3174 23.5 18.625C23.5 15.9326 21.3174 13.75 18.625 13.75Z" stroke="white" stroke-width="1.5" stroke-linecap="round" stroke-linejoin="round"/>
<path d="M16.75 11.5883C16.75 12.0025 17.0858 12.3383 17.5 12.3383C17.9142 12.3383 18.25 12.0025 18.25 11.5883H16.75ZM11.5192 18.1716C11.931 18.2165 12.3012 17.9191 12.346 17.5073C12.3909 17.0955 12.0935 16.7253 11.6817 16.6804L11.5192 18.1716ZM12.8056 15.2487C13.2198 15.2543 13.5601 14.923 13.5656 14.5088C13.5712 14.0947 13.2399 13.7544 12.8258 13.7488L12.8056 15.2487ZM8.5 16H9.25V10H8.5H7.75V16H8.5ZM17.5 11.5883H18.25V10H17.5H16.75V11.5883H17.5ZM11.6004 17.426L11.6817 16.6804C10.8287 16.5875 10.138 16.4109 9.68426 16.2057C9.45571 16.1023 9.32434 16.0082 9.2608 15.9448C9.19974 15.884 9.25 15.9038 9.25 16H8.5H7.75C7.75 16.429 7.96281 16.7689 8.20182 17.0072C8.43836 17.243 8.74459 17.427 9.06614 17.5724C9.71265 17.8648 10.5721 18.0684 11.5192 18.1716L11.6004 17.426ZM12.8157 14.4988L12.8258 13.7488C11.6823 13.7335 10.6869 13.5682 10.0033 13.3315C9.65775 13.2119 9.43271 13.0879 9.30892 12.9877C9.17863 12.8821 9.25 12.8818 9.25 13H8.5H7.75C7.75 13.5221 8.06086 13.9071 8.36479 14.1533C8.67522 14.4047 9.07913 14.5989 9.51255 14.749C10.3868 15.0516 11.5493 15.2318 12.8056 15.2487L12.8157 14.4988Z" fill="white"/>
<path d="M17.4531 20.625L17.4531 16.625M18.625 16.625V15.625M18.625 21.625V20.625M17.4531 18.625H19.7969M19.7969 18.625C20.1852 18.625 20.5 18.9608 20.5 19.375V19.875C20.5 20.2892 20.1852 20.625 19.7969 20.625H16.75M19.7969 18.625C20.1852 18.625 20.5 18.2892 20.5 17.875V17.375C20.5 16.9608 20.1852 16.625 19.7969 16.625H16.75" stroke="white" stroke-width="1.5" stroke-linecap="round" stroke-linejoin="round"/>
</g>
<defs>
<clipPath id="clip0_4230_1230">
<rect width="18" height="18" fill="white" transform="translate(7 7)"/>
</clipPath>
</defs>
</svg>
