<svg width="54" height="54" viewBox="0 0 54 54" fill="none" xmlns="http://www.w3.org/2000/svg">
<g clip-path="url(#clip0_8200_1611)">
<path opacity="0.2" d="M8.4375 38.8125C8.4375 39.7076 8.79308 40.566 9.42601 41.199C10.0589 41.8319 10.9174 42.1875 11.8125 42.1875H45.5625C46.0101 42.1875 46.4393 42.0097 46.7557 41.6932C47.0722 41.3768 47.25 40.9476 47.25 40.5V16.875C47.25 16.4274 47.0722 15.9982 46.7557 15.6818C46.4393 15.3653 46.0101 15.1875 45.5625 15.1875H11.8125C10.9174 15.1875 10.0589 14.8319 9.42601 14.199C8.79308 13.566 8.4375 12.7076 8.4375 11.8125V38.8125Z" fill="white"/>
<path d="M8.4375 11.8125V38.8125C8.4375 39.7076 8.79308 40.566 9.42601 41.199C10.0589 41.8319 10.9174 42.1875 11.8125 42.1875H45.5625C46.0101 42.1875 46.4393 42.0097 46.7557 41.6932C47.0722 41.3768 47.25 40.9476 47.25 40.5V16.875C47.25 16.4274 47.0722 15.9982 46.7557 15.6818C46.4393 15.3653 46.0101 15.1875 45.5625 15.1875H11.8125C10.9174 15.1875 10.0589 14.8319 9.42601 14.199C8.79308 13.566 8.4375 12.7076 8.4375 11.8125ZM8.4375 11.8125C8.4375 10.9174 8.79308 10.0589 9.42601 9.42601C10.0589 8.79308 10.9174 8.4375 11.8125 8.4375H40.5" stroke="white" stroke-width="2" stroke-linecap="round" stroke-linejoin="round"/>
<path d="M37.9688 30.375C39.3667 30.375 40.5 29.2417 40.5 27.8438C40.5 26.4458 39.3667 25.3125 37.9688 25.3125C36.5708 25.3125 35.4375 26.4458 35.4375 27.8438C35.4375 29.2417 36.5708 30.375 37.9688 30.375Z" fill="white"/>
</g>
<defs>
<clipPath id="clip0_8200_1611">
<rect width="54" height="54" fill="white"/>
</clipPath>
</defs>
</svg>
