<svg width="54" height="54" viewBox="0 0 54 54" fill="none" xmlns="http://www.w3.org/2000/svg">
<g clip-path="url(#clip0_8182_2394)">
<path opacity="0.2" d="M27 47.25C38.1838 47.25 47.25 38.1838 47.25 27C47.25 15.8162 38.1838 6.75 27 6.75C15.8162 6.75 6.75 15.8162 6.75 27C6.75 38.1838 15.8162 47.25 27 47.25Z" fill="#FF3B30"/>
<path d="M27 47.25C38.1838 47.25 47.25 38.1838 47.25 27C47.25 15.8162 38.1838 6.75 27 6.75C15.8162 6.75 6.75 15.8162 6.75 27C6.75 38.1838 15.8162 47.25 27 47.25Z" stroke="#FF3B30" stroke-width="2.25" stroke-miterlimit="10"/>
<path d="M38.8125 20.25L32.0625 27" stroke="#FF3B30" stroke-width="2.25" stroke-linecap="round" stroke-linejoin="round"/>
<path d="M38.8125 27L32.0625 20.25" stroke="#FF3B30" stroke-width="2.25" stroke-linecap="round" stroke-linejoin="round"/>
<path d="M21.9375 20.25L15.1875 27" stroke="#FF3B30" stroke-width="2.25" stroke-linecap="round" stroke-linejoin="round"/>
<path d="M21.9375 27L15.1875 20.25" stroke="#FF3B30" stroke-width="2.25" stroke-linecap="round" stroke-linejoin="round"/>
<path d="M27 40.5C28.398 40.5 29.5312 39.3667 29.5312 37.9688C29.5312 36.5708 28.398 35.4375 27 35.4375C25.602 35.4375 24.4688 36.5708 24.4688 37.9688C24.4688 39.3667 25.602 40.5 27 40.5Z" fill="#FF3B30"/>
</g>
<defs>
<clipPath id="clip0_8182_2394">
<rect width="54" height="54" fill="white"/>
</clipPath>
</defs>
</svg>
