<svg width="32" height="32" viewBox="0 0 32 32" fill="none" xmlns="http://www.w3.org/2000/svg">
<path opacity="0.2" fill-rule="evenodd" clip-rule="evenodd" d="M16 32C24.8366 32 32 24.8366 32 16C32 7.16344 24.8366 0 16 0C7.16344 0 0 7.16344 0 16C0 24.8366 7.16344 32 16 32Z" fill="white"/>
<path d="M22.5805 20.5C23.1425 20.5 23.5895 20.1464 23.9908 19.6519C24.8124 18.6396 23.4635 17.8306 22.949 17.4345C22.426 17.0317 21.8421 16.8036 21.25 16.75M20.5 15.25C21.5355 15.25 22.375 14.4105 22.375 13.375C22.375 12.3395 21.5355 11.5 20.5 11.5" stroke="white" stroke-width="1.5" stroke-linecap="round"/>
<path d="M9.41947 20.5C8.85749 20.5 8.4105 20.1464 8.00916 19.6519C7.18757 18.6396 8.5365 17.8306 9.05098 17.4345C9.57398 17.0317 10.1579 16.8036 10.75 16.75M11.125 15.25C10.0895 15.25 9.25 14.4105 9.25 13.375C9.25 12.3395 10.0895 11.5 11.125 11.5" stroke="white" stroke-width="1.5" stroke-linecap="round"/>
<path d="M13.0629 18.3334C12.2965 18.8072 10.2872 19.7748 11.511 20.9856C12.1088 21.577 12.7746 22 13.6117 22H18.3883C19.2254 22 19.8912 21.577 20.489 20.9856C21.7128 19.7748 19.7035 18.8072 18.9371 18.3334C17.1401 17.2222 14.8599 17.2222 13.0629 18.3334Z" stroke="white" stroke-width="1.5" stroke-linecap="round" stroke-linejoin="round"/>
<path d="M18.625 12.625C18.625 14.0747 17.4497 15.25 16 15.25C14.5503 15.25 13.375 14.0747 13.375 12.625C13.375 11.1753 14.5503 10 16 10C17.4497 10 18.625 11.1753 18.625 12.625Z" stroke="white" stroke-width="1.5"/>
</svg>
