<svg width="48" height="48" viewBox="0 0 48 48" fill="none" xmlns="http://www.w3.org/2000/svg">
<rect width="48" height="48" rx="24" fill="#0082D9" fill-opacity="0.1"/>
<path d="M18 22V20C18 16.69 19 14 24 14C29 14 30 16.69 30 20V22" stroke="#0082D9" stroke-width="1.5" stroke-linecap="round" stroke-linejoin="round"/>
<path d="M24 30.5C25.3807 30.5 26.5 29.3807 26.5 28C26.5 26.6193 25.3807 25.5 24 25.5C22.6193 25.5 21.5 26.6193 21.5 28C21.5 29.3807 22.6193 30.5 24 30.5Z" stroke="#0082D9" stroke-width="1.5" stroke-linecap="round" stroke-linejoin="round"/>
<path d="M29 34H19C15 34 14 33 14 29V27C14 23 15 22 19 22H29C33 22 34 23 34 27V29C34 33 33 34 29 34Z" stroke="#0082D9" stroke-width="1.5" stroke-linecap="round" stroke-linejoin="round"/>
</svg>
