<svg width="32" height="33" viewBox="0 0 32 33" fill="none" xmlns="http://www.w3.org/2000/svg">
<path opacity="0.2" fill-rule="evenodd" clip-rule="evenodd" d="M16 32.8252C24.8366 32.8252 32 25.6618 32 16.8252C32 7.98864 24.8366 0.825195 16 0.825195C7.16344 0.825195 0 7.98864 0 16.8252C0 25.6618 7.16344 32.8252 16 32.8252Z" fill="#0082D9"/>
<path d="M22.75 23.5752H14.5C12.0251 23.5752 10.7877 23.5752 10.0188 22.8064C9.25 22.0375 9.25 20.8001 9.25 18.3252V10.0752" stroke="#0082D9" stroke-width="1.5" stroke-linecap="round"/>
<path d="M10.75 22.8252C11.0795 20.458 12.7573 14.3984 14.8211 14.3984C16.2476 14.3984 16.617 17.3017 18.0148 17.3017C20.4198 17.3017 20.0712 10.8252 22.75 10.8252" stroke="#0082D9" stroke-width="1.5" stroke-linecap="round" stroke-linejoin="round"/>
</svg>
