<svg width="148" height="24" viewBox="0 0 148 24" fill="none" xmlns="http://www.w3.org/2000/svg">
<path d="M12.896 6.80446C12.896 6.80446 13.0283 4.29079 12.4633 4.29079C11.9983 4.29079 11.6625 5.39823 10.7294 7.81122L4.42996 23.6662H0L6.26394 7.81122C8.1302 2.71569 9.76399 0.133823 13.0639 0.133823C15.3951 0.133823 17.0289 2.51434 17.0289 6.80446V16.9955C17.0289 16.9955 16.861 19.5092 17.4292 19.5092C17.8296 19.5092 18.1299 18.6713 18.795 16.9631H18.7627L22.3952 7.81122C24.2614 2.71569 25.8952 0.133823 29.1919 0.133823C31.5231 0.133823 33.1569 2.51434 33.1569 6.80446V23.6662H29.024V6.80446C29.024 6.80446 29.1564 4.29079 28.5913 4.29079C28.1264 4.29079 27.7906 5.39823 26.8574 7.81122L23.5931 16.057C21.7591 21.12 20.093 23.6662 16.8287 23.6662C14.4975 23.6662 12.896 21.2532 12.896 16.9955V6.80446ZM59.3847 4.45967C62.8492 4.19012 64.0826 -0.100006 70.3498 -0.100006C76.617 -0.100006 82.2803 5.26183 82.2803 11.9C82.2803 18.5382 76.914 23.9 70.3498 23.9C63.7856 23.9 62.8525 19.5774 59.3847 19.3403C55.8846 19.5741 54.6512 23.9 48.4196 23.9C41.8198 23.9 36.489 18.5024 36.489 11.9C36.489 5.29756 41.8231 -0.100006 48.4228 -0.100006C54.6545 -0.100006 55.8879 4.19012 59.3879 4.45967H59.3847ZM70.3498 19.743C74.5828 19.743 78.1474 16.1576 78.1474 11.8643C78.1474 7.5709 74.5828 4.05371 70.3498 4.05371C65.216 4.05371 64.751 8.74654 59.3847 8.74654C54.0184 8.74654 53.5179 4.05371 48.4196 4.05371C44.1543 4.05371 40.6219 7.57415 40.6219 11.8643C40.6219 16.1544 44.1543 19.743 48.4196 19.743C53.5179 19.743 54.0184 15.0502 59.3847 15.0502C64.751 15.0502 65.216 19.743 70.3498 19.743ZM83.9464 23.6662V19.5092H92.3769C96.5744 19.5092 99.9421 16.0894 99.9421 11.9C99.9421 7.71055 96.5776 4.29079 92.3769 4.29079H83.9464V0.133823H92.3769C98.841 0.133823 104.075 5.39499 104.075 11.9C104.075 18.405 98.8765 23.598 92.477 23.6662H83.9464ZM140.535 23.6662H136.402V7.03829C136.402 5.29431 136.134 4.15439 135.004 4.15439C133.105 4.15439 131.404 7.10324 130.639 8.34384L120.774 23.6629H115.841L125.705 8.34384C129.105 3.04695 131.304 -0.00257715 135.837 -0.00257715C138.636 -0.00257715 140.535 2.61177 140.535 7.03829V23.6629V23.6662ZM143.867 0.169547H148V23.6662H143.867V0.169547Z" fill="#C9E2FF"/>
</svg>
