<svg width="32" height="33" viewBox="0 0 32 33" fill="none" xmlns="http://www.w3.org/2000/svg">
<path opacity="0.2" fill-rule="evenodd" clip-rule="evenodd" d="M16 32.8252C24.8366 32.8252 32 25.6618 32 16.8252C32 7.98864 24.8366 0.825195 16 0.825195C7.16344 0.825195 0 7.98864 0 16.8252C0 25.6618 7.16344 32.8252 16 32.8252Z" fill="#0082D9"/>
<path d="M10.9913 15.0874C12.8015 11.8842 13.7067 10.2826 14.9487 9.8703C15.632 9.64349 16.368 9.64349 17.0513 9.8703C18.2933 10.2826 19.1985 11.8842 21.0087 15.0874C22.819 18.2906 23.7241 19.8922 23.4526 21.1972C23.3032 21.9151 22.9352 22.5663 22.4013 23.0575C21.4308 23.9502 19.6205 23.9502 16 23.9502C12.3795 23.9502 10.5692 23.9502 9.59872 23.0575C9.06481 22.5663 8.69679 21.9151 8.54742 21.1972C8.2759 19.8922 9.18102 18.2906 10.9913 15.0874Z" stroke="#0082D9" stroke-width="1.5"/>
<path d="M15.994 19.8252H16.0007" stroke="#0082D9" stroke-width="2" stroke-linecap="round" stroke-linejoin="round"/>
<path d="M16 17.5752L16 14.5752" stroke="#0082D9" stroke-width="1.5" stroke-linecap="round" stroke-linejoin="round"/>
</svg>
