<svg width="25" height="24" viewBox="0 0 25 24" fill="none" xmlns="http://www.w3.org/2000/svg">
<path d="M10.1667 7.7143V6.41327C10.1667 4.94834 10.7781 3.68557 11.679 2.62107C12.0294 2.20702 12.2046 2 12.5 2C12.7954 2 12.9706 2.20702 13.321 2.62107C14.2219 3.68557 14.8333 4.94834 14.8333 6.41327V7.7143C14.8333 8.78573 14.8333 9.09036 15.4807 9.559C15.9985 9.8919 16.5 10.2143 16.5 10.8598C16.5 11.6429 16.1667 12 15.4358 12H9.56415C8.83333 12 8.5 11.6429 8.5 10.8598C8.5 10.2143 9.00146 9.8919 9.51933 9.559C10.1667 9.09036 10.1667 8.78573 10.1667 7.7143Z" stroke="#C9E2FF" stroke-width="1.5" stroke-linejoin="round"/>
<path d="M20 22C21.3807 22 22.5 20.8061 22.5 19.3333C22.5 17.8606 21.3807 16.6667 20 16.6667C20 15.1939 18.8807 14 17.5 14" stroke="#C9E2FF" stroke-width="1.5" stroke-linecap="round" stroke-linejoin="round"/>
<path d="M5 22C3.61929 22 2.5 20.8061 2.5 19.3333C2.5 17.8606 3.61929 16.6667 5 16.6667C5 15.1939 6.11929 14 7.5 14" stroke="#C9E2FF" stroke-width="1.5" stroke-linecap="round" stroke-linejoin="round"/>
<path d="M10.5 15V20" stroke="#C9E2FF" stroke-width="1.5" stroke-linecap="round"/>
<path d="M14.5 15V17" stroke="#C9E2FF" stroke-width="1.5" stroke-linecap="round"/>
</svg>
