<svg width="15" height="32" viewBox="0 0 15 32" fill="none" xmlns="http://www.w3.org/2000/svg">
<path d="M13.3337 6L8.58498 1.7026C8.06739 1.2342 7.8086 1 7.50033 1C7.19206 1 6.93326 1.2342 6.41567 1.7026L1.66699 6" stroke="#FF00D0" stroke-width="1.5" stroke-linecap="round" stroke-linejoin="round"/>
<path d="M10.8337 16.0001C10.8337 17.841 9.34128 19.3334 7.50033 19.3334C5.65938 19.3334 4.16699 17.841 4.16699 16.0001C4.16699 14.1591 5.65938 12.6667 7.50033 12.6667C9.34128 12.6667 10.8337 14.1591 10.8337 16.0001Z" stroke="#FF00D0" stroke-width="1.5" stroke-linecap="round" stroke-linejoin="round"/>
<path d="M1.66699 26.0002L6.41567 30.2976C6.93326 30.766 7.19206 31.0002 7.50033 31.0002C7.8086 31.0002 8.06739 30.766 8.58498 30.2976L13.3337 26.0002" stroke="#FF00D0" stroke-width="1.5" stroke-linecap="round" stroke-linejoin="round"/>
</svg>
