<svg width="54" height="54" viewBox="0 0 54 54" fill="none" xmlns="http://www.w3.org/2000/svg">
<g clip-path="url(#clip0_8200_1616)">
<path opacity="0.2" d="M11.4877 42.5123C9.54703 40.5717 10.8338 36.4943 9.84656 34.1065C8.82141 31.6406 5.0625 29.6367 5.0625 27C5.0625 24.3633 8.82141 22.3594 9.84656 19.8935C10.8338 17.5078 9.54703 13.4283 11.4877 11.4877C13.4283 9.54703 17.5078 10.8338 19.8935 9.84656C22.3699 8.82141 24.3633 5.0625 27 5.0625C29.6367 5.0625 31.6406 8.82141 34.1065 9.84656C36.4943 10.8338 40.5717 9.54703 42.5123 11.4877C44.453 13.4283 43.1663 17.5057 44.1534 19.8935C45.1786 22.3699 48.9375 24.3633 48.9375 27C48.9375 29.6367 45.1786 31.6406 44.1534 34.1065C43.1663 36.4943 44.453 40.5717 42.5123 42.5123C40.5717 44.453 36.4943 43.1663 34.1065 44.1534C31.6406 45.1786 29.6367 48.9375 27 48.9375C24.3633 48.9375 22.3594 45.1786 19.8935 44.1534C17.5078 43.1663 13.4283 44.453 11.4877 42.5123Z" fill="white"/>
<path d="M11.4877 42.5123C9.54703 40.5717 10.8338 36.4943 9.84656 34.1065C8.82141 31.6406 5.0625 29.6367 5.0625 27C5.0625 24.3633 8.82141 22.3594 9.84656 19.8935C10.8338 17.5078 9.54703 13.4283 11.4877 11.4877C13.4283 9.54703 17.5078 10.8338 19.8935 9.84656C22.3699 8.82141 24.3633 5.0625 27 5.0625C29.6367 5.0625 31.6406 8.82141 34.1065 9.84656C36.4943 10.8338 40.5717 9.54703 42.5123 11.4877C44.453 13.4283 43.1663 17.5057 44.1534 19.8935C45.1786 22.3699 48.9375 24.3633 48.9375 27C48.9375 29.6367 45.1786 31.6406 44.1534 34.1065C43.1663 36.4943 44.453 40.5717 42.5123 42.5123C40.5717 44.453 36.4943 43.1663 34.1065 44.1534C31.6406 45.1786 29.6367 48.9375 27 48.9375C24.3633 48.9375 22.3594 45.1786 19.8935 44.1534C17.5078 43.1663 13.4283 44.453 11.4877 42.5123Z" stroke="white" stroke-width="2" stroke-linecap="round" stroke-linejoin="round"/>
<path d="M18.5625 28.6875L23.625 33.75L35.4375 21.9375" stroke="white" stroke-width="2" stroke-linecap="round" stroke-linejoin="round"/>
</g>
<defs>
<clipPath id="clip0_8200_1616">
<rect width="54" height="54" fill="white"/>
</clipPath>
</defs>
</svg>
