<svg width="54" height="54" viewBox="0 0 54 54" fill="none" xmlns="http://www.w3.org/2000/svg">
<g clip-path="url(#clip0_8182_1854)">
<path opacity="0.2" d="M27 47.25C38.1838 47.25 47.25 38.1838 47.25 27C47.25 15.8162 38.1838 6.75 27 6.75C15.8162 6.75 6.75 15.8162 6.75 27C6.75 38.1838 15.8162 47.25 27 47.25Z" fill="#90EB43"/>
<path d="M18.5625 28.6875L23.625 33.75L35.4375 21.9375" stroke="#90EB43" stroke-width="2" stroke-linecap="round" stroke-linejoin="round"/>
<path d="M27 47.25C38.1838 47.25 47.25 38.1838 47.25 27C47.25 15.8162 38.1838 6.75 27 6.75C15.8162 6.75 6.75 15.8162 6.75 27C6.75 38.1838 15.8162 47.25 27 47.25Z" stroke="#90EB43" stroke-width="2" stroke-linecap="round" stroke-linejoin="round"/>
</g>
<defs>
<clipPath id="clip0_8182_1854">
<rect width="54" height="54" fill="white"/>
</clipPath>
</defs>
</svg>
